# xmcd CD database file
#
# Track frame offsets:
#	150
#	16021
#	33171
#	50620
#	71901
#	92257
#	111690
#	129827
#	153139
#	169112
#	184540
#	202008
#	225531
#	240806
#
# Disc length: 3429 seconds
#
# Revision: 0
# Processed by: cddbd v1.5.2PL0 Copyright (c) Steve Scherf et al.
# Submitted via: CDex 1.70beta2
#
DISCID=a50d630e
DTITLE=Beegie Adair and Friends - JAZZ and the MOVIES
DYEAR=2012
DGENRE=Jazz
TTITLE0=MOON RIVER
TTITLE1=I WILL WAIT FOR YOU
TTITLE2=THEY CAN'T TAKE THAT AWAY FROM ME
TTITLE3=LAURA
TTITLE4=THIS MASQUERADE
TTITLE5=MAKIN' WHOOPEE
TTITLE6=THE SHADOW OF YOUR SMILE
TTITLE7=AS TIME GOES BY
TTITLE8=NATURE BOY
TTITLE9=MISTY
TTITLE10=THE PINK PANTHER THEME
TTITLE11='ROUND MIDNIGHT
TTITLE12=WATCH WHAT HAPPENS
TTITLE13=OVER THE RAINBOW
EXTD=YEAR: 2012
EXTT0=
EXTT1=
EXTT2=
EXTT3=
EXTT4=
EXTT5=
EXTT6=
EXTT7=
EXTT8=
EXTT9=
EXTT10=
EXTT11=
EXTT12=
EXTT13=
PLAYORDER=
